<?xml version="1.0" encoding="UTF-8" standalone="no"?>
<!-- Created with Inkscape (http://www.inkscape.org/) -->

<svg
   id="svg3355"
   version="1.1"
   xml:space="preserve"
   width="601.25"
   height="138.75"
   viewBox="0 0 601.25 138.75"><g
     id="g3363"
     inkscape:groupmode="layer"
     inkscape:label="ink_ext_XXXXXX"
     transform="matrix(1.25,0,0,-1.25,0,138.75)"><g
       id="g3365"
       transform="matrix(0.12838229,0,0,0.12838229,-68.259408,-15.752171)"><g
         id="g3400"
         transform="translate(330.11868,-51.047459)"><path
           inkscape:connector-curvature="0"
           id="path3385"
           style="fill:#ec0d5d;fill-opacity:1;fill-rule:evenodd;stroke:none"
           d="M 865.85148,729.04241 C 1000.3601,938.53102 1195.2323,1053.3423 1301.0077,985.42356 1406.7828,917.50577 1383.4824,692.53764 1248.968,483.04403 1114.4599,273.56395 919.59049,158.75359 813.81351,226.67077 708.04003,294.59012 731.34547,519.55882 865.85148,729.04241" /><path
           inkscape:connector-curvature="0"
           id="path3387"
           style="fill:#ec0d5d;fill-opacity:1;fill-rule:evenodd;stroke:none"
           d="M 609.85332,626.00956 C 709.13894,449.92448 719.44325,267.72175 632.87364,219.13029 546.30405,170.53567 395.58063,273.92222 296.29501,450.0073 197.011,626.08765 186.70707,808.29025 273.27754,856.88564 359.85064,905.4749 510.57311,802.08867 609.85332,626.00956" /><g
           transform="scale(1,-1)"
           style="font-style:normal;font-variant:normal;font-weight:bold;font-stretch:normal;font-size:510.76000977px;line-height:125%;font-family:Dosis;-inkscape-font-specification:'Dosis, Bold';text-align:start;letter-spacing:0px;word-spacing:0px;writing-mode:lr-tb;text-anchor:start;fill:#000000;fill-opacity:1;stroke:none;stroke-width:1px;stroke-linecap:butt;stroke-linejoin:miter;stroke-opacity:1"
           id="text3389"><path
             d="m 1428.1897,-556.49077 q 0,-11.74748 5.1076,-20.4304 5.6183,-9.19368 15.8335,-9.19368 l 216.0515,0 q 10.2152,0 15.3228,9.19368 5.6184,8.68292 5.6184,20.4304 0,12.25824 -5.6184,21.45192 -5.6183,8.68292 -15.3228,8.68292 l -74.5709,0 0,292.66549 q 0,9.70444 -10.2153,15.3228 -9.7044,5.61836 -22.9842,5.61836 -13.7905,0 -23.4949,-5.61836 -9.7045,-5.61836 -9.7045,-15.3228 l 0,-292.66549 -75.0817,0 q -9.7044,0 -15.3228,-8.68292 -5.6183,-8.68292 -5.6183,-21.45192 z"
             style=""
             id="path3407" /><path
             d="m 1650.5778,-430.33305 q 0,-10.72596 14.812,-19.40888 15.3228,-8.68292 29.1133,-8.68292 14.8121,0 19.4089,11.23672 l 56.6944,148.12041 56.6943,-147.09889 q 4.5969,-12.25824 18.8982,-12.25824 12.2582,0 28.0918,9.19368 15.8335,8.68292 15.8335,19.40888 0,4.59684 -2.043,8.68292 l -87.34,202.26097 q -5.6183,11.74748 -30.1348,11.74748 -24.5165,0 -29.6241,-11.74748 l -87.8507,-202.26097 q -2.5538,-3.57532 -2.5538,-9.19368 z"
             style=""
             id="path3409" /><path
             d="m 1918.4554,-233.69044 0,-201.23945 q 0,-9.19368 8.6829,-14.81204 9.1937,-5.61836 23.495,-5.61836 12.769,0 20.9412,5.61836 8.6829,5.61836 8.6829,14.81204 l 0,20.94116 q 8.1721,-17.8766 25.538,-31.15636 17.3658,-13.27976 37.2855,-13.27976 l 15.8335,0 q 9.1937,0 16.3443,8.68292 7.6614,8.68292 7.6614,19.91964 0,11.74748 -7.6614,20.4304 -7.1506,8.68292 -16.3443,8.68292 l -15.8335,0 q -23.495,0 -41.3716,20.94116 -17.3658,20.94116 -17.3658,54.65133 l 0,91.42604 q 0,7.6614 -10.2152,14.30128 -10.2152,6.63988 -23.495,6.63988 -13.7905,0 -22.9842,-6.12912 -9.1937,-6.63988 -9.1937,-14.81204 z"
             style=""
             id="path3411" /><path
             d="m 2097.3172,-312.85824 0,-41.88233 q 0,-42.39308 26.5596,-73.03868 27.0702,-30.6456 64.3557,-30.6456 22.4735,0 39.3285,11.23672 17.3659,11.23672 26.5596,27.58104 l 0,-75.59248 -39.8393,0 q -8.1722,0 -12.769,-7.15064 -4.5969,-7.15064 -4.5969,-16.85508 0,-9.70444 4.5969,-16.85508 4.5968,-7.15064 12.769,-7.15064 l 39.8393,0 0,-33.1994 q 0,-9.19368 9.1936,-14.81204 9.7045,-5.61836 24.0058,-5.61836 14.3012,0 23.4949,5.61836 9.1937,5.61836 9.1937,14.81204 l 0,33.1994 14.812,0 q 8.1722,0 12.769,7.15064 4.5969,7.15064 4.5969,16.85508 0,10.2152 -4.5969,17.36584 -4.5968,6.63988 -12.769,6.63988 l -14.812,0 0,261.50913 q 0,8.17216 -9.7044,14.81204 -9.1937,6.12912 -22.9842,6.12912 -11.7475,0 -20.9412,-6.63988 -8.6829,-6.63988 -8.6829,-14.30128 l 0,-14.81204 q -8.1722,16.34432 -28.0918,28.60256 -19.4089,11.74748 -42.9039,11.74748 -35.2424,0 -62.3127,-31.66712 -27.0703,-31.66712 -27.0703,-73.03868 z m 65.8881,0 q 0,17.8766 13.2797,32.68864 13.2798,14.30128 31.1564,14.30128 17.8766,0 32.1779,-13.79052 14.3013,-14.30128 14.3013,-24.00572 l 0,-51.07601 q 0,-20.4304 -14.3013,-33.1994 -13.7905,-12.769 -31.6671,-12.769 -18.3874,0 -31.6672,14.30128 -13.2797,13.79052 -13.2797,31.66712 l 0,41.88233 z"
             style=""
             id="path3413" /><path
             d="m 2357.0546,-276.08352 q 0,-41.37156 30.6456,-58.22665 30.6456,-16.85508 88.3615,-16.85508 l 20.9411,0 0,-6.63988 q 0,-18.89812 -11.2367,-32.68864 -10.7259,-14.30128 -33.7101,-14.30128 -22.9842,0 -39.3286,8.17216 -16.3443,7.6614 -18.8981,7.6614 -10.2152,0 -16.3443,-10.2152 -6.1291,-10.2152 -6.1291,-22.47344 0,-14.81204 26.0487,-25.538 26.5596,-11.23672 55.6729,-11.23672 55.6728,0 82.7431,28.60256 27.0703,28.0918 27.0703,70.99564 l 0,125.13621 q 0,8.68292 -9.1937,14.81204 -9.1937,6.12912 -22.9842,6.12912 -12.769,0 -21.4519,-6.12912 -8.1722,-6.12912 -8.1722,-14.81204 l 0,-14.81204 q -35.2424,40.35004 -77.6355,40.35004 -29.1133,0 -48.0114,-17.36584 -18.3874,-17.36584 -18.3874,-50.56524 z m 65.888,-8.68292 q 0,13.79052 7.1507,20.94116 7.6614,6.63988 19.9196,6.63988 16.3443,0 31.6671,-15.3228 15.3228,-15.3228 15.3228,-33.71016 l 0,-10.72596 -7.6614,0 q -31.1563,0 -49.0329,6.63988 -17.3659,6.12912 -17.3659,25.538 z"
             style=""
             id="path3415" /><path
             d="m 2585.3085,-430.33305 q 0,-10.72596 14.812,-19.40888 15.3228,-8.68292 29.1133,-8.68292 14.8121,0 19.4089,11.23672 l 56.6944,148.12041 56.6943,-147.09889 q 4.5969,-12.25824 18.8981,-12.25824 12.2583,0 28.0918,9.19368 15.8336,8.68292 15.8336,19.40888 0,4.59684 -2.043,8.68292 l -87.34,202.26097 q -5.6184,11.74748 -30.1348,11.74748 -24.5165,0 -29.6241,-11.74748 l -87.8507,-202.26097 q -2.5538,-3.57532 -2.5538,-9.19368 z"
             style=""
             id="path3417" /><path
             d="m 2838.8849,-276.08352 q 0,-41.37156 30.6456,-58.22665 30.6456,-16.85508 88.3615,-16.85508 l 20.9412,0 0,-6.63988 q 0,-18.89812 -11.2368,-32.68864 -10.7259,-14.30128 -33.7101,-14.30128 -22.9842,0 -39.3285,8.17216 -16.3444,7.6614 -18.8982,7.6614 -10.2152,0 -16.3443,-10.2152 -6.1291,-10.2152 -6.1291,-22.47344 0,-14.81204 26.0488,-25.538 26.5595,-11.23672 55.6728,-11.23672 55.6728,0 82.7431,28.60256 27.0703,28.0918 27.0703,70.99564 l 0,125.13621 q 0,8.68292 -9.1937,14.81204 -9.1937,6.12912 -22.9842,6.12912 -12.769,0 -21.4519,-6.12912 -8.1722,-6.12912 -8.1722,-14.81204 l 0,-14.81204 q -35.2424,40.35004 -77.6355,40.35004 -29.1133,0 -48.0114,-17.36584 -18.3874,-17.36584 -18.3874,-50.56524 z m 65.8881,-8.68292 q 0,13.79052 7.1506,20.94116 7.6614,6.63988 19.9196,6.63988 16.3444,0 31.6672,-15.3228 15.3228,-15.3228 15.3228,-33.71016 l 0,-10.72596 -7.6614,0 q -31.1564,0 -49.033,6.63988 -17.3658,6.12912 -17.3658,25.538 z"
             style=""
             id="path3419" /><path
             d="m 3295.0654,-326.64877 0,-142.50204 q 0,-60.78044 32.1779,-88.87224 32.6886,-28.0918 87.3399,-28.0918 54.6514,0 87.34,28.0918 32.6886,28.0918 32.6886,88.87224 l 0,142.50204 q 0,60.78045 -32.6886,88.87225 -32.6886,28.0918 -87.34,28.0918 -54.6513,0 -87.3399,-28.0918 -32.1779,-28.0918 -32.1779,-88.87225 z m 66.3988,0 q 0,58.73741 53.119,58.73741 53.6298,0 53.6298,-58.73741 l 0,-142.50204 q 0,-58.7374 -53.6298,-58.7374 -53.119,0 -53.119,58.7374 l 0,142.50204 z m 36.264,-53.6298 q -6.6399,-6.63988 -6.6399,-17.36584 0,-10.72596 6.1291,-16.85508 6.6399,-6.63988 17.8766,-6.63988 10.726,0 16.8551,6.63988 6.6399,6.12912 6.6399,16.85508 0,10.72596 -6.6399,17.36584 -6.1291,6.63988 -16.8551,6.63988 -10.726,0 -17.3658,-6.63988 z"
             style=""
             id="path3421" /><path
             d="m 3571.6658,-233.69044 0,-49.54372 q 0,-22.47344 16.855,-44.43613 16.8551,-21.96268 40.8608,-39.83928 l 49.033,-35.24244 q 24.0057,-17.8766 40.8608,-37.79624 16.8551,-19.91964 16.8551,-39.83928 0,-17.8766 -12.2583,-31.66712 -11.7474,-13.79052 -35.2424,-13.79052 -19.9196,0 -32.6886,11.23672 -12.769,11.23672 -12.769,33.71016 0,9.70444 -9.7045,17.36584 -9.1937,7.15064 -25.0272,7.15064 -30.1349,0 -30.1349,-35.7532 0,-41.88232 32.6887,-67.93108 32.6886,-26.04876 77.1247,-26.04876 46.4792,0 80.1894,28.60256 34.2209,28.0918 34.2209,75.08172 0,30.6456 -16.8551,57.71588 -16.3443,26.55952 -40.35,45.45764 -24.0058,18.38736 -48.0115,34.22092 -23.4949,15.83356 -40.35,31.66713 -16.3443,15.83356 -16.3443,30.13484 l 0,12.25824 141.9912,0 q 8.1722,0 14.3013,8.68292 6.6399,8.17216 6.6399,19.91964 0,11.74748 -6.6399,20.94116 -6.1291,8.68292 -14.3013,8.68292 l -181.8305,0 q -9.7045,0 -19.4089,-6.12912 -9.7044,-6.12912 -9.7044,-14.81204 z"
             style=""
             id="path3423" /><path
             d="m 3818.7779,-512.05465 q 0,-15.83356 12.769,-24.00572 l 60.2697,-45.9684 q 6.1291,-5.1076 13.7905,-5.1076 11.2367,0 20.4304,6.12912 9.1937,6.12912 9.1937,15.3228 l 0,331.99401 q 0,9.70444 -10.2152,15.3228 -9.7045,5.61836 -22.9842,5.61836 -13.7906,0 -23.495,-5.61836 -9.7044,-5.61836 -9.7044,-15.3228 l 0,-272.74585 -16.3444,16.34432 q -5.1076,4.59684 -12.2582,4.59684 -9.1937,0 -15.3228,-8.17216 -6.1291,-8.17216 -6.1291,-18.38736 z"
             style=""
             id="path3425" /></g></g></g></g></svg>